<svg width="1418" height="274" viewBox="0 0 1418 274" fill="none" xmlns="http://www.w3.org/2000/svg">
<path d="M312.414 197.6C306.281 202 298.681 204.2 289.614 204.2C280.547 204.2 272.281 200.533 264.814 193.2C257.481 185.867 253.814 176.2 253.814 164.2C253.814 146.733 258.947 132.8 269.214 122.4C279.481 112 292.481 106.8 308.214 106.8C308.614 106.8 309.014 106.8 309.414 106.8C315.947 106.8 322.081 107.933 327.814 110.2C332.081 107.933 336.414 106.8 340.814 106.8C345.347 106.8 348.747 107.467 351.014 108.8C345.814 150.4 342.947 173.4 342.414 177.8L341.414 186C344.881 186 347.481 185.933 349.214 185.8C354.681 185.4 359.947 182.8 365.014 178C370.081 173.067 374.014 165.733 376.814 156C381.081 161.333 383.614 165.2 384.414 167.6C381.081 178.533 376.214 186.933 369.814 192.8C363.547 198.533 356.814 202.067 349.614 203.4C358.681 214.067 363.214 224.2 363.214 233.8C363.214 234.2 363.214 234.6 363.214 235C363.214 240.2 362.281 244.8 360.414 248.8C358.681 252.933 356.281 256 353.214 258C347.347 261.867 341.614 263.8 336.014 263.8C326.147 263.8 318.747 260.733 313.814 254.6C310.081 249.667 308.214 243.333 308.214 235.6C308.214 233.467 308.347 231.267 308.614 229L312.414 197.6ZM311.214 122.4C302.681 122.4 295.881 125.667 290.814 132.2C285.881 138.6 282.947 148.2 282.014 161C281.881 162.2 281.814 163.333 281.814 164.4C281.814 170.933 283.347 176.133 286.414 180C289.614 183.867 293.681 185.8 298.614 185.8C306.081 185.8 311.947 181.067 316.214 171.6L321.614 124.4C318.014 123.067 314.547 122.4 311.214 122.4ZM338.414 207.6C336.281 224.533 335.214 234.267 335.214 236.8C335.214 239.467 336.014 241.533 337.614 243C339.214 244.6 341.081 245.4 343.214 245.4C345.481 245.4 347.481 244.467 349.214 242.6C350.947 240.867 351.814 238.267 351.814 234.8C351.814 225.6 347.347 216.533 338.414 207.6ZM460.263 108.8C454.796 152 452.063 175 452.063 177.8C452.063 183.133 453.996 185.8 457.863 185.8C461.329 185.8 465.063 183.467 469.063 178.8C473.196 174 476.463 166.867 478.863 157.4C483.263 162.2 485.929 165.933 486.863 168.6C483.796 181.533 478.929 190.667 472.263 196C465.596 201.333 458.729 204 451.663 204C440.063 204 432.263 199.533 428.263 190.6C421.329 199.533 412.063 204 400.463 204C390.863 204 383.463 201.6 378.263 196.8C373.063 192 370.463 185.733 370.463 178C370.463 176.133 370.796 172.867 371.463 168.2C374.529 143.4 376.863 123.667 378.463 109C382.596 107.533 386.396 106.8 389.863 106.8C393.329 106.8 395.929 106.933 397.663 107.2C399.396 107.467 401.063 108.467 402.663 110.2C404.263 111.933 405.063 114.4 405.063 117.6L398.463 168.6C398.196 170.2 398.063 171.667 398.063 173C398.063 180.867 401.663 184.8 408.863 184.8C415.529 184.8 421.063 181.533 425.463 175C425.463 173.533 425.596 171.2 425.863 168L432.463 114.8C433.396 112.533 435.396 110.667 438.463 109.2C441.529 107.6 445.329 106.8 449.863 106.8C454.529 106.8 457.996 107.467 460.263 108.8ZM487.63 55.8C490.696 52.6 494.43 51 498.83 51C503.23 51 506.963 52.6 510.03 55.8C513.23 58.8667 514.83 62.6 514.83 67C514.83 71.4 513.23 75.1333 510.03 78.2C506.963 81.2667 503.23 82.8 498.83 82.8C494.43 82.8 490.696 81.2667 487.63 78.2C484.563 75.1333 483.03 71.4 483.03 67C483.03 62.6 484.563 58.8667 487.63 55.8ZM479.43 114.4C480.763 112 483.296 110.2 487.03 109C490.763 107.667 494.43 107 498.03 107C501.763 107 505.03 107.467 507.83 108.4C502.63 148.533 500.03 168.8 500.03 169.2C499.363 171.867 499.03 174.133 499.03 176C499.03 177.733 499.163 179.267 499.43 180.6C499.963 184.067 502.363 185.8 506.63 185.8C511.03 185.8 515.03 183 518.63 177.4C522.363 171.667 525.163 165.2 527.03 158C527.963 158.533 529.43 160.133 531.43 162.8C533.43 165.467 534.63 167.467 535.03 168.8C532.363 179.467 527.83 188.067 521.43 194.6C515.03 201.133 507.363 204.4 498.43 204.4C489.496 204.4 482.83 202.2 478.43 197.8C474.163 193.4 472.03 187.733 472.03 180.8C472.03 179.333 472.096 177.8 472.23 176.2L479.43 114.4ZM574.319 204.8L518.719 203.6C516.986 203.6 516.119 201.267 516.119 196.6C516.119 191.8 517.119 188.067 519.119 185.4C521.119 180.067 526.652 172.267 535.719 162C538.652 158.667 544.119 152.667 552.119 144C560.119 135.333 565.386 129.4 567.919 126.2L557.319 125.6C555.319 130.4 552.386 134.333 548.519 137.4C544.786 140.333 540.586 141.8 535.919 141.8C530.586 141.8 526.252 140.267 522.919 137.2C519.586 134 517.919 129.6 517.919 124C517.919 118.4 519.852 113.933 523.719 110.6C527.586 107.267 532.919 105.6 539.719 105.6L595.319 106.8C597.052 106.8 597.919 109.067 597.919 113.6C597.919 118.267 597.052 121.867 595.319 124.4C593.719 127.333 591.386 130.467 588.319 133.8C585.386 137 581.052 141.333 575.319 146.8C569.586 152.133 565.586 155.933 563.319 158.2C554.386 167.133 547.719 175.733 543.319 184L556.719 184.8C558.719 180 561.586 176.133 565.319 173.2C569.186 170.133 573.452 168.6 578.119 168.6C583.452 168.6 587.786 170.2 591.119 173.4C594.452 176.467 596.119 180.8 596.119 186.4C596.119 192 594.186 196.467 590.319 199.8C586.452 203.133 581.119 204.8 574.319 204.8ZM538.119 124.2C533.452 124.2 531.119 125.733 531.119 128.8C531.119 131.867 532.852 133.4 536.319 133.4C541.519 133.4 545.652 130.6 548.719 125L540.519 124.4C539.719 124.267 538.919 124.2 538.119 124.2ZM575.919 186.2C580.586 186.2 582.919 184.667 582.919 181.6C582.919 178.533 581.186 177 577.719 177C572.519 177 568.386 179.8 565.319 185.4L573.519 186C574.319 186.133 575.119 186.2 575.919 186.2ZM695.024 204C682.757 204 674.624 199.733 670.624 191.2C663.69 199.867 654.757 204.2 643.824 204.2C633.024 204.2 623.89 200.533 616.424 193.2C609.09 185.867 605.424 176.2 605.424 164.2C605.424 146.733 610.557 132.8 620.824 122.4C631.09 112 644.09 106.8 659.824 106.8C660.224 106.8 660.624 106.8 661.024 106.8C667.69 106.8 673.824 107.933 679.424 110.2C683.024 107.933 687.357 106.8 692.424 106.8C697.624 106.8 701.357 107.467 703.624 108.8C702.424 118.667 701.157 128.4 699.824 138C698.49 147.467 697.557 154.2 697.024 158.2C695.824 167.267 695.224 173.8 695.224 177.8C695.224 183.133 697.357 185.8 701.624 185.8C704.957 185.8 708.49 183.6 712.224 179.2C715.957 174.667 719.224 167.6 722.024 158C725.89 161.467 728.557 165.333 730.024 169.6C726.157 182.267 720.957 191.2 714.424 196.4C707.89 201.467 701.424 204 695.024 204ZM662.824 122.4C654.29 122.4 647.49 125.667 642.424 132.2C637.49 138.6 634.557 148.2 633.624 161C633.49 162.2 633.424 163.333 633.424 164.4C633.424 170.933 634.957 176.133 638.024 180C641.224 183.867 645.29 185.8 650.224 185.8C658.624 185.8 664.957 179.867 669.224 168L674.024 124.8C670.157 123.2 666.424 122.4 662.824 122.4ZM760.794 63.8C760.794 64.6 758.994 78.9333 755.394 106.8H784.794V122.2H753.394L752.794 127.2C768.394 140.267 776.194 154.533 776.194 170C776.194 182.133 773.061 190.867 766.794 196.2C760.661 201.533 753.261 204.2 744.594 204.2C735.927 204.2 729.594 201.933 725.594 197.4C721.594 192.733 719.594 187.133 719.594 180.6C719.594 179.133 719.727 177.533 719.994 175.8L726.194 122.6L725.394 122.2H709.194C709.061 120.867 708.994 118.733 708.994 115.8C708.994 112.733 709.594 109.733 710.794 106.8H727.994L734.394 52.4C737.194 51.3333 740.927 50.8 745.594 50.8C755.727 50.8 760.794 55.1333 760.794 63.8ZM762.794 169.8C762.794 160.6 758.794 151.533 750.794 142.6C748.394 162.467 747.194 173.933 747.194 177C747.194 183 749.127 186 752.994 186C755.794 186 758.127 184.733 759.994 182.2C761.861 179.533 762.794 175.4 762.794 169.8Z" fill="white"/>
<path d="M795.229 203V199.784C799.829 199.025 803.291 198.109 805.614 197.037C807.936 195.92 809.678 194.424 810.84 192.548C812.001 190.627 813.14 188.104 814.257 184.977L839.918 114.024L836.166 105.515L850.102 98.279L885.478 191.61C886.237 193.665 887.063 195.228 887.957 196.3C888.895 197.372 890.212 198.154 891.91 198.645C893.607 199.136 895.997 199.516 899.079 199.784V203H855.261V199.784C859.593 199.516 862.832 199.203 864.976 198.846C867.12 198.444 868.348 197.573 868.661 196.233C868.973 194.848 868.571 192.593 867.455 189.466L843.335 123.337H842.933L820.22 186.518C819.237 189.243 818.969 191.476 819.416 193.218C819.862 194.915 821.18 196.278 823.369 197.305C825.557 198.288 828.751 199.114 832.95 199.784V203H795.229ZM825.245 166.552V160.924H861.961V166.552H825.245ZM903.931 203V199.784L915.321 197.104V106.788L903.931 104.175V100.959H945.672C952.729 100.959 958.96 102.143 964.365 104.51C969.769 106.833 973.99 110.25 977.028 114.761C980.065 119.228 981.584 124.722 981.584 131.243C981.584 140.355 978.189 147.323 971.4 152.147C964.61 156.971 955.342 159.383 943.595 159.383H930.396V197.104L945.672 199.784V203H903.931ZM930.396 154.023H939.173C944.533 154.023 948.798 153.42 951.97 152.214C955.186 150.963 957.754 149.244 959.675 147.055C961.685 144.777 963.069 142.186 963.829 139.283C964.633 136.335 965.035 133.231 965.035 129.97C965.035 124.476 964.052 119.898 962.087 116.235C960.121 112.572 957.352 109.959 953.779 108.396C951.054 107.056 946.945 106.386 941.451 106.386H930.396V154.023ZM991.074 203V199.784L1003 197.104V106.721L991.074 104.175V100.959H1029.8V104.175L1018.07 106.721V197.104L1029.8 199.784V203H991.074Z" fill="white"/>
</svg>
